<svg xmlns="http://www.w3.org/2000/svg" fill="none" viewBox="0 0 442 200">
  <g clip-path="url(#clip0)">
    <path fill="#7870E8" d="M93.472 85.117c16.303 0 29.52-13.213 29.52-29.512 0-16.298-13.217-29.51-29.52-29.51-16.304 0-29.521 13.212-29.521 29.51 0 16.299 13.217 29.512 29.52 29.512z" opacity=".1"/>
    <path fill="#7870E8" d="M93.471 75.3c10.881 0 19.701-8.818 19.701-19.695s-8.82-19.695-19.7-19.695c-10.881 0-19.702 8.818-19.702 19.695S82.59 75.3 93.471 75.3z" opacity=".1"/>
    <path fill="#7870E8" d="M93.471 64.241a8.638 8.638 0 008.639-8.636 8.638 8.638 0 00-8.639-8.636 8.637 8.637 0 00-8.639 8.636 8.637 8.637 0 008.64 8.636z" opacity=".1"/>
    <path fill="#C1E0DB" stroke="#6E5CFF" stroke-linecap="round" stroke-linejoin="round" stroke-miterlimit="10" stroke-width="1.125" d="M61.03 140.411H35.549l13.548 11.804 11.933-11.804z"/>
    <path fill="#fff" stroke="#6E5CFF" stroke-linecap="round" stroke-linejoin="round" stroke-miterlimit="10" stroke-width="1.125" d="M72.838 103.134s5.594-.621 4.972 3.728c-.621 4.349-3.107 10.997-4.972 10.127 0 0 1.243-10.748 0-13.855zM26.227 103.134s-5.594-.621-4.972 3.728c.621 4.349 3.107 10.997 4.972 10.127 0 0-1.243-10.748 0-13.855z"/>
    <path fill="#C8CEF6" stroke="#6E5CFF" stroke-miterlimit="10" stroke-width="1.125" d="M92.041 163.585c-.435-2.671-1.242-5.281-2.61-7.642-1.367-2.423-3.356-4.846-6.153-5.653-5.966-1.74-26.35-5.841-26.35-5.841H41.515s-20.385 4.101-26.351 5.841c-2.797.807-4.786 3.292-6.153 5.653-1.367 2.361-2.175 4.971-2.61 7.642L.745 200.676h96.952l-5.656-37.091z"/>
    <path fill="#fff" stroke="#6E5CFF" stroke-linecap="round" stroke-linejoin="round" stroke-miterlimit="10" stroke-width="1.125" d="M57.922 133.578v15.408s-3.107 3.789-8.825 3.789c-6.96 0-9.26-3.789-9.26-3.789l-.062-1.243-.435-14.414 18.582.249z"/>
    <path fill="#ACB0EE" d="M39.589 138.361s4.35 1.243 9.073 1.243c4.724 0 9.26-1.181 9.26-1.181v5.219s-3.17 1.367-9.26.684c-5.344-.622-9.073-3.666-9.073-3.666v-2.299z" opacity=".2"/>
    <path fill="#C8CEF6" d="M395.389 171.414c-2.238-17.396-22.995-28.145-24.673-45.603-1.492-15.843 13.299-28.703 15.661-44.422 1.554-10.438-2.921-21.496-11.373-27.834-19.701-14.848-50.527-1.056-71.471-14.103-7.271-4.473-12.492-11.804-19.887-16.091-12.679-7.394-28.651-4.536-43.007-1.43-13.362 2.859-27.221 5.965-38.284 13.98-6.898 4.97-12.429 11.742-19.825 15.905-13.113 7.455-29.583 5.653-43.752 10.997-18.583 6.958-30.453 24.851-40.024 42.247-14.17 25.597-26.413 54.301-25.046 83.004 2.672 3.79 5.593 7.394 8.763 10.686 1.367.932 2.672 1.864 4.102 2.672 19.825 1.864 39.775 3.604 59.662 2.361 33.623-2.175 66.188-13.109 99.811-14.662 24.983-1.181 49.967 2.857 74.205 8.946 15.351 3.852 31.136 8.574 46.674 5.654 15.537-2.982 30.452-16.651 28.464-32.307z" opacity=".25"/>
    <path fill="#fff" stroke="#6E5CFF" stroke-miterlimit="10" stroke-width="1.125" d="M371.462 163.585c-.373-2.672-1.181-5.281-2.424-7.642-1.243-2.423-3.17-4.846-5.718-5.654-5.593-1.739-24.611-5.84-24.611-5.84h-14.48s-19.018 4.101-24.611 5.84c-2.61.808-4.475 3.293-5.718 5.654-1.243 2.361-2.051 4.97-2.424 7.642l-5.282 37.091h90.612l-5.344-37.091z"/>
    <path fill="#fff" stroke="#6E5CFF" stroke-linecap="round" stroke-linejoin="round" stroke-miterlimit="10" stroke-width="1.125" d="M338.026 142.089v-12.177l-17.153-.249.373 12.302c.062 1.118-.684 2.174-1.803 2.485l-9.943 3.044s6.401 7.331 20.881 7.331c14.419 0 19.08-8.138 19.08-8.138l-9.447-2.175c-1.18-.186-1.988-1.243-1.988-2.423z"/>
    <path fill="#94F0DD" stroke="#6E5CFF" stroke-miterlimit="10" stroke-width="1.125" d="M359.964 87.601s1.243 17.396 11.187 26.094c0 0-6.837 11.184-26.724 9.32l3.107-29.2 12.43-6.214z"/>
    <path fill="#1BA39C" d="M359.032 93.194s4.039 25.721-2.797 29.324l-4.537.808s6.464-7.828 4.226-30.816l3.108.684z" opacity=".2"/>
    <path fill="#fff" d="M356.235 101.519s1.864-.87 2.486 1.615c.621 2.485.684 5.592-2.735 8.698"/>
    <path stroke="#6E5CFF" stroke-linecap="round" stroke-linejoin="round" stroke-miterlimit="10" stroke-width="1.125" d="M356.235 101.519s1.864-.87 2.486 1.615c.621 2.485.684 5.592-2.735 8.698"/>
    <path fill="#fff" stroke="#6E5CFF" stroke-linecap="round" stroke-linejoin="round" stroke-miterlimit="10" stroke-width="1.125" d="M329.636 135.628c-16.408 0-25.916-13.296-25.916-29.698V93.939c0-16.402 9.508-29.697 25.916-29.697 16.407 0 26.537 13.295 26.537 29.697v11.991c.062 16.402-10.13 29.698-26.537 29.698z"/>
    <path fill="#C8CEF6" fill-opacity=".2" stroke="#6E5CFF" stroke-linecap="round" stroke-linejoin="round" stroke-miterlimit="10" stroke-width="1.125" d="M323.296 122.207s2.548.622 6.34.622c3.791 0 6.96-.622 6.96-.622s-1.243 4.474-6.96 4.474c-5.718-.063-6.34-4.474-6.34-4.474z"/>
    <path fill="#94F0DD" stroke="#6E5CFF" stroke-miterlimit="10" stroke-width="1.125" d="M303.409 91.391s27.842-9.505 27.842-18.328l-6.774-8.822c0-.062-22.373-3.23-21.068 27.15z"/>
    <path fill="#94F0DD" stroke="#6E5CFF" stroke-miterlimit="10" stroke-width="1.125" d="M319.443 64.863c.373.932 2.486 23.795 41.08 28.33 0 0 3.605-17.334-9.57-25.72-10.876-6.897-24.549-5.406-31.51-2.61z"/>
    <path stroke="#6E5CFF" stroke-linecap="round" stroke-linejoin="round" stroke-miterlimit="10" stroke-width="1.125" d="M323.918 190.115s22.373-4.971 37.289 0"/>
    <path fill="#fff" stroke="#6E5CFF" stroke-linecap="round" stroke-linejoin="round" stroke-miterlimit="10" stroke-width="1.125" d="M323.918 200.676h-5.594v-7.828c0-1.491 1.243-2.734 2.735-2.734h2.859v10.562zM318.324 191.978s-7.457-1.864-13.051 1.864c-5.593 3.728-9.011 6.834-9.011 6.834h22.062v-8.698z"/>
    <path stroke="#6E5CFF" stroke-linecap="round" stroke-linejoin="round" stroke-miterlimit="10" stroke-width="1.125" d="M356.235 170.233l1.865 18.638"/>
    <path fill="#fff" stroke="#6E5CFF" stroke-linecap="round" stroke-linejoin="round" stroke-miterlimit="10" stroke-width="1.125" d="M294.087 200.676h-19.266a5.57 5.57 0 015.593-5.592h8.079c3.045 0 5.594 2.486 5.594 5.592z"/>
    <path fill="#ACB0EE" d="M321.121 134.322s4.04 1.119 8.39 1.119c4.351 0 8.514-1.056 8.514-1.056v4.783s-2.921 1.243-8.514.622c-4.972-.559-8.39-3.355-8.39-3.355v-2.113z" opacity=".2"/>
    <path stroke="#6E5CFF" stroke-linecap="round" stroke-linejoin="round" stroke-miterlimit="10" stroke-width="1.125" d="M332.619 78.903s14.294 9.32 27.966 9.32M346.291 81.389s6.837 3.727 14.294 3.106M354.93 146.811s-2.672 7.828-16.283 11.866c-9.509 2.858-21.814-1.367-21.814-1.367M363.072 109.346s2.796 5.902 5.406 7.331M363.072 116.18s.745 1.926 2.237 2.858"/>
    <path fill="#1BA39C" d="M324.912 71.883c2.175 1.553 5.531 2.237 7.893.932.87-.497 1.616-1.18 2.548-1.615 2.175-.87 4.661.186 6.712 1.242s4.661 2.05 6.712 1.056c1.057-.497 1.865-1.49 3.108-1.553 1.118-.062 2.237.684 3.294.373.994-.31 1.18-1.553.683-2.299-.559-.808-1.553-1.802-2.486-2.174-5.531-2.237-9.136-4.039-15.164-5.157-2.921-.56-8.204-.435-11.187-.062-2.051.248-6.463 1.056-6.712 3.168-.124 1.864 3.108 5.033 4.599 6.09z" opacity=".2"/>
    <path fill="#ACB0EE" d="M311.613 185.082c2.175-.187 4.35.31 6.463-.249 4.102-.994 6.526-5.529 10.627-6.71 5.842-1.677 12.306 4.163 17.713 1.429 1.678-.87 2.921-2.485 4.537-3.541 1.615-1.056 4.101-1.305 5.158.311.497.745.559 1.677.559 2.547.125 3.168.311 6.337.435 9.506-10.13-1.243-20.447.31-30.515 1.863-3.48.56-6.96 1.057-10.441 1.616-1.74.248-3.542.559-5.282.87-2.61.497-7.769 2.92-7.458-1.119.249-3.355 5.345-6.213 8.204-6.523z" opacity=".2"/>
    <path stroke="#6E5CFF" stroke-linecap="round" stroke-linejoin="round" stroke-miterlimit="10" stroke-width="1.125" d="M328.144 113.758s2.175-1.304 3.978.435"/>
    <path fill="#6E5CFF" d="M340.698 105.556a1.242 1.242 0 10.002-2.484 1.242 1.242 0 00-.002 2.484z"/>
    <path stroke="#6E5CFF" stroke-linecap="round" stroke-linejoin="round" stroke-miterlimit="10" stroke-width="1.125" d="M336.347 98.784s2.486-1.864 5.594-1.242c3.107.621 3.729 1.864 4.972 1.242"/>
    <path fill="#6E5CFF" d="M318.263 105.556a1.242 1.242 0 100-2.484 1.242 1.242 0 000 2.484z"/>
    <path stroke="#6E5CFF" stroke-linecap="round" stroke-linejoin="round" stroke-miterlimit="10" stroke-width="1.125" d="M322.675 98.784s-2.486-1.864-5.593-1.242c-3.108.621-3.729 1.864-4.972 1.242"/>
    <path fill="#FEEB8E" d="M165.501 157.434c-.435-3.106-1.367-6.15-2.796-8.946-1.492-2.796-3.667-5.654-6.712-6.648-6.526-2.05-28.713-6.834-28.713-6.834h-16.842s-22.187 4.784-28.713 6.834c-3.045.932-5.22 3.852-6.712 6.648a25.843 25.843 0 00-2.05 5.281l-6.961 22.677s.932 1.242 3.231 2.423l-3.107 21.807H171.654l-6.153-43.242z"/>
    <path fill="#6E5CFF" fill-rule="evenodd" d="M110.378 134.443h16.962l.059.013-.119.55.119-.55.251.054.716.156 2.604.57c2.183.481 5.161 1.143 8.344 1.87 6.355 1.45 13.558 3.164 16.847 4.198l.006.001c3.262 1.065 5.527 4.093 7.034 6.918l.004.009c1.46 2.854 2.41 5.959 2.853 9.124l6.244 43.882H65.478l3.143-22.058a12.418 12.418 0 01-2.237-1.543 8.143 8.143 0 01-.616-.599 5.448 5.448 0 01-.155-.178l-.042-.052-.013-.016-.004-.005-.001-.002v-.001s-.001-.001.449-.338l-.45.338-.172-.23 7.042-22.94a26.397 26.397 0 012.092-5.385l.003-.006c1.502-2.816 3.769-5.918 7.042-6.92 3.29-1.034 10.49-2.747 16.844-4.197a1126.63 1126.63 0 0110.949-2.44l.716-.156.25-.054.12.55-.119-.55.059-.013zm.12 1.125l-.192.041-.715.156a1160.91 1160.91 0 00-10.937 2.437c-6.37 1.454-13.524 3.157-16.76 4.174l-.004.002c-2.816.861-4.899 3.597-6.38 6.371a25.305 25.305 0 00-2.005 5.165l-.002.01-6.873 22.39c.111.119.275.283.497.479.488.429 1.258 1.008 2.363 1.576l.357.182-3.073 21.563h104.232l-6.061-42.601-.001-.001c-.426-3.046-1.34-6.028-2.738-8.764-1.475-2.764-3.559-5.449-6.385-6.373-3.238-1.017-10.389-2.719-16.757-4.173a1157.621 1157.621 0 00-10.937-2.437l-.715-.156-.192-.041h-16.722zM66.45 176.107c0-.001 0-.001 0 0z" clip-rule="evenodd"/>
    <path fill="#C8CEF6" stroke="#6E5CFF" stroke-miterlimit="10" stroke-width="1.125" d="M172.649 200.676h-49.284a4.323 4.323 0 014.35-4.349h40.583c2.424 0 4.351 1.988 4.351 4.349z"/>
    <path fill="#C8CEF6" d="M210.186 200.676h-77.064v-43.552c0-3.728 3.045-6.772 6.774-6.772h63.454c3.729 0 6.774 3.044 6.774 6.772v43.552h.062z"/>
    <path fill="#6E5CFF" fill-rule="evenodd" d="M139.896 150.914c-3.418 0-6.212 2.793-6.212 6.21v42.99h75.878v-42.99c0-3.417-2.794-6.21-6.212-6.21h-63.454zm70.29 49.762v.563H132.56v-44.115c0-4.038 3.297-7.334 7.336-7.334h63.454c4.039 0 7.336 3.296 7.336 7.334v43.552h-.5z" clip-rule="evenodd"/>
    <path fill="#fff" d="M130.388 118.169v18.328s-3.667 4.536-10.441 4.536c-8.328 0-11.063-4.536-11.063-4.536l-.062-1.491-.497-17.147 22.063.31z"/>
    <path fill="#6E5CFF" fill-rule="evenodd" d="M107.924 117.464a.567.567 0 01.409-.168l22.063.311a.562.562 0 01.554.562v18.328a.562.562 0 01-.125.354l-.437-.354.437.354-.001.001-.001.001-.003.004-.011.013-.037.044c-.033.038-.079.091-.14.158-.122.133-.301.32-.537.542a14.792 14.792 0 01-10.148 3.981c-4.273 0-7.146-1.165-8.963-2.36a10.252 10.252 0 01-1.958-1.651 6.824 6.824 0 01-.577-.725l-.032-.048-.009-.015-.003-.005-.001-.002c-.001 0-.001-.001.48-.292l-.481.291a.55.55 0 01-.08-.267l-.063-1.498-.497-17.148a.562.562 0 01.161-.411zm1.515 18.851l.032.044c.081.11.208.272.387.469.358.394.925.929 1.743 1.467 1.632 1.073 4.291 2.175 8.346 2.175a13.656 13.656 0 009.376-3.673 9.695 9.695 0 00.502-.51v-17.563l-20.921-.295.48 16.557.055 1.329z" clip-rule="evenodd"/>
    <path fill="#ACB0EE" d="M108.636 123.823s5.22 1.491 10.814 1.491c5.593 0 11-1.367 11-1.367v6.151s-3.791 1.615-11 .808c-6.34-.684-10.814-4.349-10.814-4.349v-2.734z" opacity=".2"/>
    <path fill="#fff" d="M118.952 125.066c-20.074 0-25.916-12.177-25.916-27.213V86.857c0-15.036 9.509-27.213 25.916-27.213s26.537 12.177 26.537 27.212v10.997c.063 15.036-3.666 27.213-26.537 27.213z"/>
    <path fill="#6E5CFF" fill-rule="evenodd" d="M100.259 67.988c-4.32 4.805-6.66 11.467-6.66 18.869v10.996c0 7.461 1.452 14.112 5.305 18.892 3.834 4.756 10.13 7.759 20.048 7.759 11.342 0 17.787-3.017 21.423-7.749 3.661-4.765 4.583-11.401 4.552-18.9V86.858c0-7.392-2.489-14.054-6.965-18.862-4.471-4.803-10.954-7.789-19.01-7.789-8.055 0-14.378 2.985-18.693 7.782zm-.836-.752c4.542-5.05 11.177-8.154 19.529-8.154 8.351 0 15.137 3.103 19.833 8.147 4.691 5.04 7.267 11.984 7.267 19.628v10.995c.031 7.536-.881 14.506-4.786 19.588-3.931 5.116-10.785 8.188-22.314 8.188-10.156 0-16.818-3.086-20.923-8.177-4.086-5.068-5.555-12.023-5.555-19.598V86.857c0-7.634 2.414-14.578 6.95-19.62z" clip-rule="evenodd"/>
    <path fill="#C8CEF6" fill-opacity=".2" stroke="#6E5CFF" stroke-linecap="round" stroke-linejoin="round" stroke-miterlimit="10" stroke-width="1.125" d="M113.918 113.945s3.294 1.242 7.707.372c4.412-.869 7.706-3.479 7.706-3.479s-.186 6.586-6.836 7.891c-6.588 1.366-8.577-4.784-8.577-4.784z"/>
    <path fill="#6E5CFF" d="M129.517 98.474a1.927 1.927 0 100-3.853 1.927 1.927 0 000 3.853z"/>
    <path fill="#ACB0EE" d="M131.258 185.765v7.642c0 4.66 2.05 8.45 4.536 8.45h69.917c2.486 0 4.537-3.79 4.537-8.45v-23.174c-.062 0-35.549 22.739-78.99 15.532z" opacity=".2"/>
    <path fill="#C8CEF6" d="M261.397 200.676H208.57a2.493 2.493 0 01-2.486-2.485 2.493 2.493 0 012.486-2.485h52.827a2.493 2.493 0 012.486 2.485 2.493 2.493 0 01-2.486 2.485z"/>
    <path fill="#6E5CFF" fill-rule="evenodd" d="M208.57 196.268a1.93 1.93 0 00-1.923 1.923 1.93 1.93 0 001.923 1.923h52.827a1.93 1.93 0 001.923-1.923 1.93 1.93 0 00-1.923-1.923H208.57zm-3.048 1.923a3.056 3.056 0 013.048-3.048h52.827a3.056 3.056 0 013.048 3.048 3.055 3.055 0 01-3.048 3.047H208.57a3.055 3.055 0 01-3.048-3.047z" clip-rule="evenodd"/>
    <path fill="#E3E6FA" d="M308.132 173.961H161.773c-4.102 0-7.458-3.355-7.458-7.455V75.549c0-4.1 3.356-7.455 7.458-7.455h146.359c4.102 0 7.458 3.355 7.458 7.455v90.957c0 4.1-3.356 7.455-7.458 7.455z"/>
    <path fill="#6E5CFF" fill-rule="evenodd" d="M161.773 68.656c-3.792 0-6.896 3.103-6.896 6.893v90.957c0 3.79 3.104 6.893 6.896 6.893h146.359c3.792 0 6.896-3.103 6.896-6.893V75.549c0-3.79-3.104-6.893-6.896-6.893H161.773zm-8.021 6.893c0-4.411 3.608-8.018 8.021-8.018h146.359c4.412 0 8.02 3.607 8.02 8.018v90.957c0 4.411-3.608 8.018-8.02 8.018H161.773c-4.413 0-8.021-3.607-8.021-8.018V75.549z" clip-rule="evenodd"/>
    <path fill="#ACB0EE" d="M154.315 156.378v8.388c0 5.094 4.164 9.257 9.26 9.257h143.003c5.097 0 9.261-4.163 9.261-9.257v-25.349c0-.062-72.528 24.79-161.524 16.961z" opacity=".2"/>
    <path fill="#7870E8" d="M223.859 127.365s-5.096 42.247-10.317 46.596h6.402c-.063 0 5.779-37.277 3.915-46.596z" opacity=".2"/>
    <path fill="#C8CEF6" d="M246.046 127.55c-.124-1.864-1.616-3.293-3.48-3.293h-15.165c-1.864 0-3.356 1.429-3.48 3.293-.684 12.239-3.48 61.445-10.379 73.126H256.425c-6.899-11.681-9.758-60.887-10.379-73.126z"/>
    <path fill="#6E5CFF" fill-rule="evenodd" d="M223.36 127.513c.143-2.152 1.873-3.818 4.041-3.818h15.165c2.168 0 3.897 1.666 4.041 3.818v.008c.311 6.117 1.18 21.465 2.833 36.741.827 7.638 1.849 15.249 3.092 21.674 1.249 6.45 2.707 11.627 4.377 14.454l.501.848h-44.853l.501-.848c1.67-2.827 3.124-8.003 4.368-14.453 1.239-6.425 2.254-14.036 3.077-21.675 1.645-15.276 2.515-30.624 2.857-36.743v-.006zm1.122.071c-.342 6.123-1.212 21.494-2.861 36.799-.824 7.653-1.844 15.298-3.091 21.767-1.133 5.877-2.465 10.848-4.041 13.963h40.989c-1.576-3.115-2.912-8.086-4.05-13.963-1.252-6.469-2.277-14.114-3.106-21.767-1.656-15.304-2.526-30.674-2.837-36.8-.108-1.574-1.36-2.764-2.919-2.764h-15.165c-1.559 0-2.812 1.191-2.919 2.765z" clip-rule="evenodd"/>
    <path stroke="#fff" stroke-linecap="round" stroke-linejoin="round" stroke-miterlimit="10" stroke-width="1.125" d="M168.547 73.933h95.087M269.227 73.933h15.537M228.209 127.365h12.43M290.358 73.933h7.457"/>
    <path fill="#7870E8" d="M167.615 168.369a.957.957 0 01-.933-.932v-4.349c0-.497.436-.932.933-.932.498 0 .933.435.933.932v4.349a.956.956 0 01-.933.932zM173.208 168.369a.956.956 0 01-.932-.932v-4.349c0-.497.435-.932.932-.932.498 0 .933.435.933.932v4.349a.956.956 0 01-.933.932zM178.802 168.369a.956.956 0 01-.933-.932v-4.349c0-.497.435-.932.933-.932.497 0 .933.435.933.932v4.349a.957.957 0 01-.933.932zM184.395 168.369a.957.957 0 01-.933-.932v-4.349c0-.497.436-.932.933-.932.498 0 .933.435.933.932v4.349a.956.956 0 01-.933.932z" opacity=".2"/>
    <path stroke="#6E5CFF" stroke-linecap="round" stroke-linejoin="round" stroke-miterlimit="10" stroke-width="1.125" d="M307.759 196.949l-5.407 3.728M304.403 195.085l1.493-16.153"/>
    <path fill="#fff" stroke="#6E5CFF" stroke-linecap="round" stroke-linejoin="round" stroke-miterlimit="10" stroke-width="1.125" d="M127.839 73.064s7.583 11.742 17.589 11.307v9.692l3.231-5.778s1.243-25.473-17.401-28.579c0-.062-4.351 5.591-3.419 13.358z"/>
    <path fill="#fff" stroke="#6E5CFF" stroke-linecap="round" stroke-linejoin="round" stroke-miterlimit="10" stroke-width="1.125" d="M131.257 59.644v11.804s-5.904 8.636-37.475 8.326c0 0-1.057 13.854-.746 15.78.31 1.926-3.418-6.15-3.418-6.15s-4.35-17.397 7.458-26.716c6.588-5.157 23.616-11.742 34.181-3.044z"/>
    <path fill="#fff" d="M90.861 78.904s3.48 1.18 5.78.87l-5.78-.87z"/>
    <path stroke="#6E5CFF" stroke-linecap="round" stroke-linejoin="round" stroke-miterlimit="10" stroke-width="1.125" d="M90.861 78.904s3.48 1.18 5.78.87"/>
    <path fill="#C8CEF6" stroke="#6E5CFF" stroke-linecap="round" stroke-linejoin="round" stroke-miterlimit="10" stroke-width="1.125" d="M101.426 93.814s3.729-2.485 11.187-1.242v-3.107s-7.458-.621-11.187 1.243v3.106zM135.608 93.814s-3.729-2.485-11.187-1.242v-3.107s7.458-.621 11.187 1.243v3.106z"/>
    <path fill="#6E5CFF" d="M107.765 98.474a1.927 1.927 0 100-3.853 1.927 1.927 0 000 3.853z"/>
    <path fill="#fff" d="M90.861 179.553l-3.294 21.124H66.064l3.294-21.745s9.073 4.97 21.503.621z"/>
    <path fill="#6E5CFF" fill-rule="evenodd" d="M69.358 178.37v.562l.27-.494.003.002.016.009.07.036c.065.033.163.082.293.143.261.122.651.293 1.16.487 1.017.388 2.507.863 4.38 1.205 3.743.685 9.018.839 15.126-1.298a.564.564 0 01.74.618l-3.293 21.124a.562.562 0 01-.556.475H66.064a.56.56 0 01-.556-.646l3.294-21.745a.562.562 0 01.556-.478zm.442 1.397l-3.082 20.348h20.368l3.077-19.736c-5.948 1.901-11.098 1.727-14.816 1.047a26.152 26.152 0 01-4.577-1.26 19.102 19.102 0 01-.97-.399z" clip-rule="evenodd"/>
    <path fill="#fff" stroke="#6E5CFF" stroke-linecap="round" stroke-linejoin="round" stroke-miterlimit="10" stroke-width="1.125" d="M92.725 90.709s-4.971 1.863-4.971 5.591 5.593 8.698 5.593 8.698l-.621-14.29zM145.552 90.709s5.593 1.863 5.593 5.591-5.593 8.698-5.593 8.698v-14.29z"/>
    <path stroke="#6E5CFF" stroke-linecap="round" stroke-linejoin="round" stroke-miterlimit="10" stroke-width="1.125" d="M130.015 107.483s2.486.621 2.486 3.107M123.365 105.744s-3.232 2.547-6.402.124"/>
    <path stroke="#fff" stroke-linecap="round" stroke-linejoin="round" stroke-miterlimit="10" stroke-width="1.125" d="M141.823 154.079h8.701"/>
    <path fill="#6E5CFF" fill-rule="evenodd" d="M93.492 169.69c.3.08.478.388.398.688l-2.486 9.319a.563.563 0 11-1.086-.29l2.486-9.319c.08-.3.388-.478.688-.398z" clip-rule="evenodd"/>
    <path fill="#fff" d="M130.636 68.342s-26.102 12.798-39.775 2.671l39.775-2.671z"/>
    <path stroke="#6E5CFF" stroke-linecap="round" stroke-linejoin="round" stroke-miterlimit="10" stroke-width="1.125" d="M130.636 68.342s-26.102 12.798-39.775 2.671"/>
    <path fill="#fff" d="M130.636 64.428s-26.724 11.991-36.046 1.43l36.046-1.43z"/>
    <path stroke="#6E5CFF" stroke-linecap="round" stroke-linejoin="round" stroke-miterlimit="10" stroke-width="1.125" d="M130.636 64.428s-26.724 11.991-36.046 1.43"/>
    <path fill="#fff" d="M131.258 59.643s-17.837 4.039-25.419-1.677l25.419 1.677z"/>
    <path stroke="#6E5CFF" stroke-linecap="round" stroke-linejoin="round" stroke-miterlimit="10" stroke-width="1.125" d="M131.258 59.643s-17.837 4.039-25.419-1.677"/>
    <path fill="#fff" d="M131.258 71.449s14.294 3.727 14.294 13.047l-14.294-13.047z"/>
    <path stroke="#6E5CFF" stroke-linecap="round" stroke-linejoin="round" stroke-miterlimit="10" stroke-width="1.125" d="M131.258 71.449s14.294 3.727 14.294 13.047"/>
    <path fill="#fff" d="M131.258 65.856s13.051 0 16.78 13.98l-16.78-13.98z"/>
    <path stroke="#6E5CFF" stroke-linecap="round" stroke-linejoin="round" stroke-miterlimit="10" stroke-width="1.125" d="M131.258 65.856s13.051 0 16.78 13.98"/>
    <path fill="#6D47D9" d="M114.788 73.064c-2.548.745-5.096 1.49-7.706 1.801-5.469.622-11.187-.87-15.661-4.1-1.678.683-1.678 3.23-.436 4.535 1.243 1.305 3.17 1.615 4.972 1.74 11.063.994 24.549-.994 33.498-8.077-1.926-.373-4.785 1.118-6.649 1.677-2.735.808-5.345 1.616-8.018 2.424zM116.466 60.576c-3.977-.062-8.141-.435-11.373-2.796a72.984 72.984 0 00-5.22 3.169c2.734 2.36 6.587 2.796 10.192 2.796 5.78 0 13.238-.435 18.458-3.17-1.305-.869-3.853-.185-5.407-.123-2.175.124-4.412.186-6.65.124z" opacity=".2"/>
    <path fill="#fff" stroke="#6E5CFF" stroke-linecap="round" stroke-linejoin="round" stroke-miterlimit="10" stroke-width="1.125" d="M49.097 139.355c-1.802 0-3.48-.186-5.096-.497-11.932-2.423-14.045-5.281-18.707-26.591v-10.935c0-14.973 8.701-27.088 23.803-27.088 15.04 0 24.363 12.115 24.363 27.088v10.935c-5.594 21.31-7.085 23.982-18.894 26.529-1.74.373-3.542.559-5.469.559z"/>
    <path fill="#fff" stroke="#6E5CFF" stroke-linecap="round" stroke-linejoin="round" stroke-miterlimit="10" stroke-width="1.125" d="M46.114 101.891H31.2v8.325h14.915v-8.325zM67.245 101.891H51.707v8.325h15.538v-8.325z"/>
    <path stroke="#6E5CFF" stroke-linecap="round" stroke-linejoin="round" stroke-miterlimit="10" stroke-width="1.125" d="M46.114 106.054h5.593M67.245 106.24h5.593M25.605 106.24h5.593"/>
    <path fill="#6E5CFF" d="M38.967 107.483a.932.932 0 10.001-1.864.932.932 0 000 1.864zM59.477 107.483a.932.932 0 100-1.864.932.932 0 000 1.864z"/>
    <path fill="#fff" d="M42.385 127.365s2.486 1.242 6.836 1.242 7.458-1.242 7.458-1.242"/>
    <path stroke="#6E5CFF" stroke-linecap="round" stroke-linejoin="round" stroke-miterlimit="10" stroke-width="1.125" d="M42.385 127.365s2.486 1.242 6.836 1.242 7.458-1.242 7.458-1.242"/>
    <path fill="#C8CEF6" stroke="#6E5CFF" stroke-miterlimit="10" stroke-width="1.125" d="M38.967 75.549l5.283 12.674s23.616 4.349 29.21-3.728c0 0-11.809-22.18-34.493-8.947z"/>
    <path fill="#C8CEF6" stroke="#6E5CFF" stroke-miterlimit="10" stroke-width="1.125" d="M24.984 101.892l3.107-1.864s3.73-14.29 14.294-15.532l-3.107-8.698s-18.645 3.106-14.294 26.094zM64.759 88.844s4.972 4.97 5.593 14.29h2.486s3.543-6.772-1.305-16.713c-.062 0-3.045 1.802-6.774 2.423z"/>
    <path fill="#6D47D9" d="M26.227 116.989s24.797 10.748 45.306-1.243c0 0-3.729 17.645-6.836 19.26-3.108 1.677-13.673 5.343-18.645 4.411-4.972-.932-11.808-3.231-13.672-6.089-1.803-2.857-4.848-11.121-6.153-16.339z" opacity=".1"/>
    <path stroke="#6E5CFF" stroke-linecap="round" stroke-linejoin="round" stroke-miterlimit="10" stroke-width="1.125" d="M51.086 119.474s-1.864 1.491-3.729.062"/>
    <path fill="#9588FF" stroke="#6E5CFF" stroke-linecap="round" stroke-linejoin="round" stroke-miterlimit="10" stroke-width="1.125" d="M47.979 153.458l-6.837 7.455-10.316-14.848 4.723-5.654 12.43 13.047zM48.849 153.458l6.836 7.455 10.317-14.848-4.724-5.654-12.43 13.047z"/>
    <path stroke="#6E5CFF" stroke-miterlimit="10" stroke-width="1.125" d="M20.633 176.446l-2.485 24.23"/>
    <path fill="#C8CEF6" d="M397.874 156.44s-9.074-24.665-13.486-24.665c-6.464 0-9.695 26.28-4.288 33.301 1.18 1.553 2.175 3.231 6.463 2.671"/>
    <path stroke="#6E5CFF" stroke-linecap="round" stroke-linejoin="round" stroke-miterlimit="10" stroke-width="1.125" d="M397.874 156.44s-9.074-24.665-13.486-24.665c-6.464 0-9.695 26.28-4.288 33.301 1.18 1.553 2.175 3.231 6.463 2.671"/>
    <path fill="#fff" d="M386.625 148.052c-3.231 1.802-1.367 15.532-1.367 15.532l.187-.062c1.553-2.858 4.847-5.094 7.955-5.964-.622-1.491-1.368-2.92-2.051-4.411a90.152 90.152 0 00-4.724-5.095z"/>
    <path stroke="#6E5CFF" stroke-linecap="round" stroke-linejoin="round" stroke-miterlimit="10" stroke-width="1.125" d="M393.524 158.055s-2.175-8.636-8.639-10.81"/>
    <path stroke="#157A6B" stroke-linecap="round" stroke-linejoin="round" stroke-miterlimit="10" stroke-width="1.125" d="M387.558 161.286s-1.057-6.462 3.791-8.325"/>
    <path fill="#C8CEF6" stroke="#6E5CFF" stroke-linecap="round" stroke-linejoin="round" stroke-miterlimit="10" stroke-width="1.125" d="M435.163 200.675s-.621-20.502-10.565-24.23h-37.91s-4.972 16.154-5.594 24.23h54.069z"/>
    <path fill="#C8CEF6" d="M426.898 185.765c4.723-3.852 6.401-12.239 6.401-18.017 0-11.681-11.684-19.26-26.102-19.26-14.419 0-26.103 7.579-26.103 19.26 0 5.84 1.678 14.227 6.402 18.017"/>
    <path stroke="#6E5CFF" stroke-linecap="round" stroke-linejoin="round" stroke-miterlimit="10" stroke-width="1.125" d="M426.898 185.765c4.723-3.852 6.401-12.239 6.401-18.017 0-11.681-11.684-19.26-26.102-19.26-14.419 0-26.103 7.579-26.103 19.26 0 5.84 1.678 14.227 6.402 18.017"/>
    <path fill="#fff" d="M403.468 157.807s2.486-4.349 3.729-1.243c1.243 3.107-.622 16.775 6.214 18.639 6.837 1.864 18.21-.559 15.973 4.97-2.3 5.592-6.029 5.592-6.029 5.592h-31.696c-4.35 0-9.322-9.319-6.214-9.319 3.107 0 9.943.621 11.808-3.107 1.864-3.728 6.215-15.532 6.215-15.532z"/>
    <path fill="#6E5CFF" d="M402.039 176.281c1.202-2.08-.114-5.087-2.937-6.717-2.824-1.63-6.087-1.265-7.289.815-1.201 2.08.114 5.087 2.938 6.717 2.824 1.63 6.087 1.265 7.288-.815zM414.965 163.398a1.553 1.553 0 10.001-3.107 1.553 1.553 0 00-.001 3.107zM395.699 162.777a1.553 1.553 0 10.001-3.107 1.553 1.553 0 00-.001 3.107z"/>
    <path fill="#C8CEF6" d="M418.942 156.44s9.074-24.665 13.487-24.665c6.463 0 9.695 26.28 4.288 33.301-1.181 1.553-2.175 3.231-6.464 2.671"/>
    <path stroke="#6E5CFF" stroke-linecap="round" stroke-linejoin="round" stroke-miterlimit="10" stroke-width="1.125" d="M418.942 156.44s9.074-24.665 13.487-24.665c6.463 0 9.695 26.28 4.288 33.301-1.181 1.553-2.175 3.231-6.464 2.671"/>
    <path fill="#fff" d="M430.005 148.052c3.232 1.802 1.367 15.532 1.367 15.532l-.186-.062c-1.554-2.858-4.848-5.094-7.955-5.964.621-1.491 1.367-2.92 2.051-4.411 1.429-1.74 3.045-3.417 4.723-5.095z"/>
    <path stroke="#6E5CFF" stroke-linecap="round" stroke-linejoin="round" stroke-miterlimit="10" stroke-width="1.125" d="M431.932 147.245c-6.464 2.174-8.639 10.81-8.639 10.81M429.259 161.286s1.057-6.462-3.791-8.325"/>
    <path fill="#fff" d="M427.705 200.054s-5.593-4.97-4.35-14.289h-31.696s1.865 11.183-2.486 14.289h38.532z"/>
    <path fill="#C8CEF6" stroke="#6E5CFF" stroke-linecap="round" stroke-linejoin="round" stroke-miterlimit="10" stroke-width="1.125" d="M425.22 200.676s-.373-5.53 6.712-6.275c7.085-.808 9.446 6.275 9.446 6.275H425.22zM389.173 200.676s.373-5.53-6.712-6.275c-7.084-.808-9.446 6.275-9.446 6.275h16.158z"/>
    <path fill="#FB9EA7" d="M414.033 175.825s6.215 4.97 2.486 7.455c-3.729 2.485-8.39-5.219-8.39-5.219"/>
    <path stroke="#6E5CFF" stroke-linecap="round" stroke-linejoin="round" stroke-miterlimit="10" stroke-width="1.125" d="M414.033 175.825s6.215 4.97 2.486 7.455c-3.729 2.485-8.39-5.219-8.39-5.219"/>
    <path fill="#C8CEF6" d="M405.332 178.93s8.079-1.864 11.187-6.213l-11.187 6.213z"/>
    <path stroke="#6E5CFF" stroke-linecap="round" stroke-linejoin="round" stroke-miterlimit="10" stroke-width="1.125" d="M405.332 178.93s8.079-1.864 11.187-6.213"/>
    <path fill="#C8CEF6" d="M414.654 179.553s-.621-2.113-3.728-2.61l3.728 2.61z"/>
    <path stroke="#6E5CFF" stroke-linecap="round" stroke-linejoin="round" stroke-miterlimit="10" stroke-width="1.125" d="M414.654 179.553s-.621-2.113-3.728-2.61"/>
    <path fill="#7870E8" fill-rule="evenodd" d="M169.079 47.507a.562.562 0 01.795-.007l3.791 3.728a.562.562 0 11-.788.802l-3.791-3.728a.561.561 0 01-.007-.795zM175.545 53.903a.562.562 0 01.795 0l3.791 3.79a.561.561 0 11-.795.795l-3.791-3.79a.562.562 0 010-.795zM179.761 47.507a.562.562 0 01-.006.795l-3.791 3.728a.563.563 0 01-.789-.802l3.791-3.728a.562.562 0 01.795.007zM173.291 53.9a.561.561 0 01.007.794l-3.729 3.79a.562.562 0 01-.802-.788l3.729-3.79a.562.562 0 01.795-.007zM402.632 120.076a.561.561 0 01.795-.01l2.486 2.423a.562.562 0 01-.785.805l-2.486-2.423a.561.561 0 01-.01-.795zM406.794 124.238a.562.562 0 01.795-.01l2.486 2.423a.562.562 0 11-.785.805l-2.485-2.423a.562.562 0 01-.011-.795zM409.832 120.071a.563.563 0 010 .795l-2.424 2.423a.563.563 0 01-.795-.795l2.424-2.423a.561.561 0 01.795 0zM405.668 124.233c.22.22.22.576 0 .795l-2.424 2.423a.561.561 0 11-.795-.795l2.424-2.423c.22-.22.576-.22.795 0zM273.677 24.454a.562.562 0 01.795 0l5.593 5.592a.561.561 0 11-.795.795l-5.593-5.591a.561.561 0 010-.796zM283.31 34.084a.562.562 0 01.795 0l5.593 5.592a.562.562 0 11-.795.795l-5.593-5.591a.562.562 0 010-.796zM289.204 24.457a.562.562 0 01-.005.795l-5.655 5.591a.563.563 0 01-.791-.8l5.655-5.59a.563.563 0 01.796.004zM279.568 34.084c.22.22.22.576 0 .796l-5.593 5.591a.562.562 0 11-.795-.795l5.593-5.592c.22-.22.576-.22.795 0z" clip-rule="evenodd"/>
    <path fill="#7870E8" d="M281.657 33.239a.933.933 0 100-1.865.933.933 0 000 1.865zM365.868 40.384a.932.932 0 10.002-1.865.932.932 0 00-.002 1.865zM93.471 56.786a1.18 1.18 0 100-2.361 1.18 1.18 0 000 2.361zM242.815 44.112a.932.932 0 100-1.864.932.932 0 000 1.864z"/>
    <path fill="#7870E8" d="M243.125 50.946a8.078 8.078 0 100-16.154 8.078 8.078 0 100 16.154z" opacity=".2"/>
    <path fill="#7870E8" d="M157.05 120.53a.933.933 0 10.001-1.865.933.933 0 00-.001 1.865z"/>
    <path fill="#7870E8" d="M157.36 127.365a8.078 8.078 0 100-16.154 8.078 8.078 0 100 16.154z" opacity=".2"/>
    <path fill="#7870E8" d="M365.557 51.567c6.865 0 12.43-5.563 12.43-12.425 0-6.863-5.565-12.426-12.43-12.426-6.864 0-12.429 5.563-12.429 12.426 0 6.862 5.565 12.425 12.429 12.425z" opacity=".1"/>
    <path fill="#7870E8" d="M365.868 62.75c12.872 0 23.306-10.43 23.306-23.298 0-12.867-10.434-23.298-23.306-23.298-12.871 0-23.306 10.43-23.306 23.298 0 12.867 10.435 23.298 23.306 23.298z" opacity=".1"/>
  </g>
  <defs>
    <clipPath id="clip0">
      <path fill="#fff" d="M0 0h442v200H0z"/>
    </clipPath>
  </defs>
</svg>
